<svg id="random" xmlns="http://www.w3.org/2000/svg" viewBox="0 0 470.25 497.11"><g id="LUCKY"><path d="M81.28,490a22.15,22.15,0,0,1-.18,3.09,7.72,7.72,0,0,1-.6,2.12,3.24,3.24,0,0,1-1,1.29,2.51,2.51,0,0,1-1.43.41H25.39a6.54,6.54,0,0,1-4-1.43q-1.89-1.42-1.89-5V380.18a2.25,2.25,0,0,1,.37-1.29,2.38,2.38,0,0,1,1.29-.87,13.89,13.89,0,0,1,2.48-.56,27.13,27.13,0,0,1,3.78-.23,26.74,26.74,0,0,1,3.82.23,14,14,0,0,1,2.44.56,2.46,2.46,0,0,1,1.29.87,2.32,2.32,0,0,1,.37,1.29v103H78.06a2.44,2.44,0,0,1,1.43.42,3.24,3.24,0,0,1,1,1.19,6.47,6.47,0,0,1,.6,2.07A23.19,23.19,0,0,1,81.28,490Z" transform="translate(-16.91 -1.57)"/><path d="M184.31,452.92a55.17,55.17,0,0,1-3.17,19.38,39.66,39.66,0,0,1-9.07,14.41,38.17,38.17,0,0,1-14.37,8.93,56.63,56.63,0,0,1-19.24,3,53.77,53.77,0,0,1-18-2.85,38.15,38.15,0,0,1-13.91-8.43,37,37,0,0,1-8.93-13.95,55.19,55.19,0,0,1-3.13-19.33V380.18a2.25,2.25,0,0,1,.37-1.29A2.42,2.42,0,0,1,96.2,378a13.93,13.93,0,0,1,2.39-.56,26.52,26.52,0,0,1,3.87-.23,27.13,27.13,0,0,1,3.78.23,12.63,12.63,0,0,1,2.43.56,2.42,2.42,0,0,1,1.25.87,2.32,2.32,0,0,1,.37,1.29v72a46.49,46.49,0,0,0,2,14.46,27.22,27.22,0,0,0,5.85,10.26,24.22,24.22,0,0,0,9.21,6.17,33.49,33.49,0,0,0,12.1,2.07,34.79,34.79,0,0,0,12.3-2,23.32,23.32,0,0,0,9.11-6.08,27.11,27.11,0,0,0,5.71-10,44.66,44.66,0,0,0,2-14V380.18a2.25,2.25,0,0,1,.37-1.29,2.38,2.38,0,0,1,1.29-.87,13.75,13.75,0,0,1,2.44-.56,26.64,26.64,0,0,1,3.82-.23,26.07,26.07,0,0,1,3.73.23,12.67,12.67,0,0,1,2.39.56,2.73,2.73,0,0,1,1.29.87,2.07,2.07,0,0,1,.41,1.29Z" transform="translate(-16.91 -1.57)"/><path d="M295.26,480.08q0,1.47-.09,2.58a10.62,10.62,0,0,1-.32,1.93,6.19,6.19,0,0,1-.6,1.48,8.19,8.19,0,0,1-1.29,1.56,26.47,26.47,0,0,1-3.87,2.81,46,46,0,0,1-7.32,3.68,60.62,60.62,0,0,1-10,3,57.73,57.73,0,0,1-12.39,1.24,54.44,54.44,0,0,1-20.94-3.86,42.38,42.38,0,0,1-15.93-11.42,52,52,0,0,1-10.13-18.65,93.62,93.62,0,0,1,.28-52,57.27,57.27,0,0,1,10.72-19.66,45.91,45.91,0,0,1,16.53-12.29,52.23,52.23,0,0,1,21.32-4.24,51.07,51.07,0,0,1,10,1,64,64,0,0,1,9,2.44,40.83,40.83,0,0,1,7.36,3.41,24.48,24.48,0,0,1,4.47,3.17,10.84,10.84,0,0,1,1.61,1.89,6.88,6.88,0,0,1,.6,1.52,15.14,15.14,0,0,1,.36,2.07,23.56,23.56,0,0,1,.14,2.85,23.24,23.24,0,0,1-.18,3.14,9,9,0,0,1-.56,2.16,3.25,3.25,0,0,1-.88,1.29,1.94,1.94,0,0,1-1.25.41c-.86,0-2.06-.6-3.61-1.79a57.07,57.07,0,0,0-6-4,48.94,48.94,0,0,0-8.88-4,38.75,38.75,0,0,0-12.55-1.8,32.59,32.59,0,0,0-14.48,3.18,30.6,30.6,0,0,0-11.16,9.35,46,46,0,0,0-7.17,15.05A82.42,82.42,0,0,0,228,458a41.64,41.64,0,0,0,7,14.55,29.54,29.54,0,0,0,11.25,8.84,36.51,36.51,0,0,0,15.08,3,40.16,40.16,0,0,0,12.46-1.75,48.8,48.8,0,0,0,9.06-3.91,71.38,71.38,0,0,0,6.16-3.92,7.41,7.41,0,0,1,3.8-1.75,2.08,2.08,0,0,1,1.11.28,1.93,1.93,0,0,1,.74,1.06,10.28,10.28,0,0,1,.42,2.16C295.22,477.5,295.26,478.67,295.26,480.08Z" transform="translate(-16.91 -1.57)"/><path d="M394,494.35a2.85,2.85,0,0,1-.32,1.34,2.28,2.28,0,0,1-1.25,1,10.83,10.83,0,0,1-2.48.6,29.42,29.42,0,0,1-4.05.23,41.22,41.22,0,0,1-5.25-.27,6.87,6.87,0,0,1-3-1,7.22,7.22,0,0,1-1.66-1.65L332.09,435v59.58a2.29,2.29,0,0,1-.37,1.24,2.34,2.34,0,0,1-1.28.92,14.31,14.31,0,0,1-2.44.55,31.5,31.5,0,0,1-7.6,0,14.36,14.36,0,0,1-2.49-.55,2.4,2.4,0,0,1-1.29-.92,2.37,2.37,0,0,1-.36-1.24V380.18a2.32,2.32,0,0,1,.36-1.29,2.46,2.46,0,0,1,1.29-.87,14.24,14.24,0,0,1,2.49-.56,31.5,31.5,0,0,1,7.6,0,14.19,14.19,0,0,1,2.44.56,2.39,2.39,0,0,1,1.28.87,2.25,2.25,0,0,1,.37,1.29v52.94l42.18-52.94a5.32,5.32,0,0,1,1.29-1.38,5.75,5.75,0,0,1,1.79-.88,15.76,15.76,0,0,1,2.58-.5,32,32,0,0,1,3.91-.19,26.52,26.52,0,0,1,3.87.23,11.16,11.16,0,0,1,2.35.6,2.38,2.38,0,0,1,1.19.92,2.31,2.31,0,0,1,.33,1.2,5.25,5.25,0,0,1-.6,2.39,21.49,21.49,0,0,1-2.26,3.32l-39.5,47.23,42.54,56.54a21.85,21.85,0,0,1,1.89,3.26A4.51,4.51,0,0,1,394,494.35Z" transform="translate(-16.91 -1.57)"/><path d="M452.16,450.62v43.92a2.32,2.32,0,0,1-.36,1.29,2.58,2.58,0,0,1-1.29.87,13.87,13.87,0,0,1-2.47.55,31.09,31.09,0,0,1-7.55,0,15.22,15.22,0,0,1-2.47-.55,2.53,2.53,0,0,1-1.33-.87,2.25,2.25,0,0,1-.37-1.29V450.62L402.63,383.4a15.06,15.06,0,0,1-1.25-3.31,1.88,1.88,0,0,1,.46-1.84,4.32,4.32,0,0,1,2.49-.83,47.3,47.3,0,0,1,4.83-.19,41.27,41.27,0,0,1,4.47.19,14.55,14.55,0,0,1,2.71.5,3.26,3.26,0,0,1,1.52.92,7.83,7.83,0,0,1,1,1.52l16.48,34.26q2.29,4.88,4.58,10.22t4.67,10.77h.19q2.1-5.25,4.34-10.45t4.54-10.27l16.58-34.43a4.53,4.53,0,0,1,.78-1.57,3.12,3.12,0,0,1,1.38-1,11.3,11.3,0,0,1,2.44-.5,33.22,33.22,0,0,1,4-.19,46.25,46.25,0,0,1,5.2.23,5.07,5.07,0,0,1,2.63.88,1.8,1.8,0,0,1,.5,1.84,13.11,13.11,0,0,1-1.24,3.22Z" transform="translate(-16.91 -1.57)"/></g><g id="feeling"><path d="M34.91,310.57l-2.42-.18a5.58,5.58,0,0,0-1.25,1.26,8.64,8.64,0,0,1-2.74,2,4.43,4.43,0,0,0-2.19,1.84,6.77,6.77,0,0,1-.72,1.39c-.24.32-.52.76-.85,1.29a4.74,4.74,0,0,1-1.2,1.35,3.77,3.77,0,0,0-1.17,1.65,1.62,1.62,0,0,1-1.61,1.12q-3.86,0-3.85-4.92c0-.95.6-2.72,1.79-5.28s2.51-4.08,3.94-4.53a24.69,24.69,0,0,0,3.27-1.21c.75-.35,1.43-.67,2.06-.94a42.73,42.73,0,0,0,5-3.27,40.66,40.66,0,0,1,4.57-1.34l3.31-2a2.41,2.41,0,0,1,1.25-1,5.51,5.51,0,0,0,1.44-.54l1.52-.18a6.31,6.31,0,0,1,3.13-1.79l2.51-1.08a30.54,30.54,0,0,1,6.45-2.59l.54-.36a2.09,2.09,0,0,1,.54-.36l2.41.18c.72,0,1.2-.57,1.44-1.7a1.3,1.3,0,0,1,.53-.18l2.24.18a2.81,2.81,0,0,0,.9-.45,4.78,4.78,0,0,1,1.66-.63,2.58,2.58,0,0,0,1.56-1,1.75,1.75,0,0,1,1.35-.81h1.52c.48,0,1-.46,1.7-1.39a15.82,15.82,0,0,1,2.69-2.82,1.53,1.53,0,0,0,.71.18c.36,0,.69-.4,1-1.21a4.52,4.52,0,0,1,1.3-1.92,10.14,10.14,0,0,0,1.92-2.56,5.94,5.94,0,0,1,2-2.32,6.52,6.52,0,0,0,1.79-1.44,2.83,2.83,0,0,1,1.75-1l.17-.18v-1.16c0-1,.84-1.85,2.51-2.69a5.87,5.87,0,0,0,1-.71V266a4.35,4.35,0,0,1,.89-1.21,3,3,0,0,0,.9-1.47q0-.72,2.82-3.81a23.33,23.33,0,0,1,4-3.81,10.51,10.51,0,0,0,2.91-3.58l1.25-.45a25.65,25.65,0,0,1,3.14-3.62,12.72,12.72,0,0,0,2.33-2.92l1.34-1.52a.7.7,0,0,0,.54-.71q0-.54-1.08-.54a11.38,11.38,0,0,1-3.31-.72l-1.52.54L103,242,100.74,243l-2.15-.17a12.73,12.73,0,0,1-3.14,1.52,10.37,10.37,0,0,0-1.39.36c-.32.12-.7.24-1.11.35a8.74,8.74,0,0,0-1.71.81,5.82,5.82,0,0,1-2.95.63,3,3,0,0,0-1.75.85,24.13,24.13,0,0,1-3.18,2.1.16.16,0,0,1-.18.18l-2.59-.18q-4,4-5.11,4l-2.06-.35a15.69,15.69,0,0,0-4.88,2.68,19.43,19.43,0,0,1-3.36,2.42l-1.61-.18a30.51,30.51,0,0,1-2.73,2.55A3.61,3.61,0,0,0,59.76,262,1.78,1.78,0,0,1,58,263l-2,1.52c0,.89-.69,1.88-2.06,2.95l-.18.36v2c0,.48-.47,1.12-1.39,1.93A4,4,0,0,1,50.31,273c-1.07,0-2.16-.7-3.26-2.11a6.92,6.92,0,0,1-1.66-4.34,7.55,7.55,0,0,1,.54-1.79l.89-3.85q.72-2.78,9.23-5.56l1.43-1.07a6,6,0,0,1,2.6-1.07l1.07-.36.54-1.35a13.11,13.11,0,0,1,1.83-.89,9.17,9.17,0,0,0,2.38-1.44,11.69,11.69,0,0,1,3.13-1.7l1.44-.89h1.88q4.2-4.22,19.34-8.69t24.63-4.48q2.59,0,5.15,3.27a10.14,10.14,0,0,1,2.55,6.05,5,5,0,0,1-2,3.49c-1,.48-1.67,1.57-2.15,3.27a6.39,6.39,0,0,1-2.42,3.72q-3.58,3.14-3.85,3.85l-.8,1.79a2.25,2.25,0,0,1-1.17,1.16,3.7,3.7,0,0,0-1.52,2c-.48,1.08-1.7,1.88-3.67,2.42-.12.06-.21.43-.27,1.12s-.78,1.42-2.15,2.19l-1.07.9c-.6,1.91-1.17,3-1.71,3.31l-.89.9c-.84,2.92-2.21,4.39-4.12,4.39-.42,0-.79.52-1.12,1.56a5.38,5.38,0,0,1-2.64,2.83v.53a20.93,20.93,0,0,1,5.55-1.25l1.25-.18.54-.54a1.94,1.94,0,0,0,1.08.36,4.17,4.17,0,0,0,2.59-1.25l1.44.18a.88.88,0,0,1,.63-.18l4.58-1.35c1.32-.23,2.79-.53,4.41-.89h.9a6.13,6.13,0,0,1,4.76,1.88,6.55,6.55,0,0,1,1.71,4.57l-.36,2.5.18,1.35c0,.36-.57.89-1.71,1.61l-.89.72a6.89,6.89,0,0,1-4.58,1.88q-4.12,0-4.93-2.06c0-.24-.4-.39-1.21-.45a4.44,4.44,0,0,1-1.84-.45,2.23,2.23,0,0,0-1-.36,8.83,8.83,0,0,1-2.43-.36,6.14,6.14,0,0,1-3.49,1.08h-.54l-1.08-.36-1.7,1.26a1.38,1.38,0,0,1-.54-.18,1.6,1.6,0,0,0-.72-.18,2.39,2.39,0,0,0-1.21.4,2.65,2.65,0,0,1-1.39.4l-1.26-.44a3.72,3.72,0,0,1-1.21.35,2.6,2.6,0,0,0-1.48,1.17,2.2,2.2,0,0,1-1.7,1.07c-1,0-2,1-3,3l-.54.54h-.54c-.42,0-.71.49-.89,1.47a4,4,0,0,1-.63,1.84c-1,.12-1.54.43-1.75.94a32.13,32.13,0,0,0-.94,3.09l-.81,1.61-1.08.63a17.6,17.6,0,0,1-3.27,6.45A42,42,0,0,0,70,317a8.9,8.9,0,0,1-2.06,2.73,3.89,3.89,0,0,0-1.3,2.37,5,5,0,0,1-.9,2.24,24.71,24.71,0,0,0-2.15,3.9L60.77,333l-1.16,2.6A1.85,1.85,0,0,1,58,336.81q-.54,0-.54.9v1.79a31.2,31.2,0,0,1-1.79,4.3L55,345.59a2.46,2.46,0,0,1-1.07.81c-.6.3-1,1.07-1.26,2.32a4.15,4.15,0,0,1-1,2.42,3.35,3.35,0,0,0-.85,2.29,2.49,2.49,0,0,1-1.79,2.28,20.66,20.66,0,0,1-.31,2.15c-.09.36-.62.75-1.57,1.16H47l.54,3.05q0,.63-.36.63c-.59.35-.89.65-.89.89l.36,1.08V365a5.57,5.57,0,0,1-.72,1.71v.18a32.45,32.45,0,0,0,.72,3.31l-.54,1.07c0,1.08.47,1.62,1.43,1.62l2.77-1.8c.83,0,1.25,1,1.25,3l.27.9c-.54.35-.8.65-.8.89a2,2,0,0,0,.18.81,2.35,2.35,0,0,1,.17.8c0,2-1.75,3-5.27,3h-.36a2.76,2.76,0,0,1-1.08-.36l-1.88.18c-.71,0-2-.69-3.89-2.06a12.65,12.65,0,0,1-4.3-6.22,22.18,22.18,0,0,1-1.48-7.3l2.51-10.3A1.61,1.61,0,0,0,36,353.2a4,4,0,0,1,.62-1.88l1.08-2.95c1.61-2.87,2.6-4.42,3-4.66s.87-.54,1.53-.9a3.7,3.7,0,0,0,1.34-1.07c-1.07-.36-1.61-.69-1.61-1a15,15,0,0,1,1.39-2.68c.92-1.62,1.68-2.48,2.28-2.6a.16.16,0,0,0,.18-.18,3,3,0,0,0-.18-.72v-.18a12.74,12.74,0,0,1,1.08-2l-.36-1.34a4.65,4.65,0,0,1,1-1.07,10,10,0,0,0,1.83-3c.78-1.65,1.38-2.57,1.79-2.78a2.51,2.51,0,0,0,.9-.67l-.27-2.51c0-.24.21-.57.63-1l.54-1.08a6.12,6.12,0,0,1,.89-1.34,15.29,15.29,0,0,0,1.43-2.15l.63-.72a15.85,15.85,0,0,0,1.08-2.24,5.84,5.84,0,0,1,2-3.85l3.4-5.28q3.58-5.46,3.58-6.27V297a11.25,11.25,0,0,0-5.1,1.75,19.61,19.61,0,0,1-3.5,1.74l-2.06-.53a27.39,27.39,0,0,0-2.86,2.77A14,14,0,0,0,44,305.47l-.36.18H41.89l-.36.18-.53.89a14.59,14.59,0,0,0-2.42,1.21,15,15,0,0,1-2.42,1.21Z" transform="translate(-16.91 -1.57)"/><path d="M115.35,313.17l1.88-1.52a2.26,2.26,0,0,0,2.33-2.24c.11-1.37,1.1-2.57,3-3.58l1.07-1.53c.9-.89,3.34-2.06,7.34-3.49A7,7,0,0,0,133,299.2a.52.52,0,0,1,.36-.18l1.43.36a9.68,9.68,0,0,0,3-.63,10.85,10.85,0,0,1,3.54-.63l3.76-.17a4.54,4.54,0,0,1,1.47.53,6.27,6.27,0,0,0,2.73.54,4.92,4.92,0,0,1,3.63,1.79,5.15,5.15,0,0,1,1.65,3.31q0,2.79-2.86,5.65c-1.91,1.91-3.42,3-4.56,3.22a10.58,10.58,0,0,1-2.32,1.93,6.28,6.28,0,0,0-1.66,1.25,2.27,2.27,0,0,1-1.38.85.65.65,0,0,1-.54-.22.65.65,0,0,0-.53-.23q-1.44,0-3.13,3.5l-1.61-.18a4.76,4.76,0,0,0-2,2.15,1.8,1.8,0,0,1-1.87,1.16q-3.31,3.32-4.47,3.31a8.1,8.1,0,0,1-1.26-.35,3,3,0,0,0-.71,1.88c0,.71-.48,1.13-1.43,1.25l-1.16,1.07-.9-.17-1.79,1.88a5.3,5.3,0,0,0-2.77.89c-.12.72-.3,1.63-.53,2.73s-.36,1.72-.36,1.84q0,2.6,4.74,2.6l4.3-.63a6,6,0,0,0,3.18-.9,6.11,6.11,0,0,1,3.18-.89,5.71,5.71,0,0,0,1.62-.36l.89.36a6,6,0,0,1,2.33-2.42,5.55,5.55,0,0,1,2.69-1.07l.89-.54a2.27,2.27,0,0,1,1.08-1.43l.72-.63a2,2,0,0,1,1.34-.72H145l.36-.18a4.37,4.37,0,0,1,3-2.73,3.41,3.41,0,0,0,2.42-1.3,2.22,2.22,0,0,1,1.75-1.07,3.26,3.26,0,0,0,2.1-1.21,11,11,0,0,1,2.11-1.93,20.55,20.55,0,0,0,1.74-1.34,1.41,1.41,0,0,1,.86-.45c.35,0,.53.27.53.81s.12.8.36.8a.32.32,0,0,0,.36-.35,3,3,0,0,0-.18-.9v-.63a1.78,1.78,0,0,1,1.43-1.79l4-2.59c.12-1.26.47-2,1-2.2a4.2,4.2,0,0,0,1.3-.71,1.45,1.45,0,0,1,1-.41c.77,0,1.16.45,1.16,1.34l-.45,2.33.45,2.42a2.63,2.63,0,0,1-.85,1.48,6.4,6.4,0,0,0-1.3,2.87c-.3,1.28-.69,2-1.16,2.1h-.54a7.52,7.52,0,0,1-2.56,2,2.92,2.92,0,0,0-1.48,1.12l-3,3.5c-.6.59-1.11,1.13-1.53,1.61s-.75.72-1,.72l-.72-.72q0-.18-.36-.18c-.6,0-1,.36-1.12,1.07a4,4,0,0,1-.94,1.89,9.68,9.68,0,0,0-3.5,2.32l-.53.18h-1.62c-.77,0-1.31.59-1.61,1.75a2.68,2.68,0,0,1-2.55,2,5.56,5.56,0,0,0-3,1.08,2.07,2.07,0,0,1-.8.36,12,12,0,0,0-2.51,1.43l-7.53,2.69a3.72,3.72,0,0,1-1.17.45l-2.51.35a1.42,1.42,0,0,1-1.07-.71q-.54-.72-.72-.72L123,348a11.84,11.84,0,0,1-3.41.54,3.93,3.93,0,0,1-2-.63,18,18,0,0,0-1.7-.9c-1.74,0-3-1.34-3.68-4l-1.07.18q-.36,0-2.42-6.36a3.08,3.08,0,0,0-1.71-1,1.58,1.58,0,0,1-1.16-1.74c0-2.69.58-4.49,1.75-5.42s1.8-1.63,1.92-2.11l1.25-4.65a4.65,4.65,0,0,0,.9-1.79l2.06-3.77C114,315.89,114.51,314.84,115.35,313.17Zm18.94-5.37-1.08.53a24,24,0,0,0-2.1,1.57,20.66,20.66,0,0,1-3.4,2.24c-1.11.57-2.24,2.05-3.41,4.43a20.36,20.36,0,0,0-1.74,4.12.47.47,0,0,0,.53.54l3-1.34a15,15,0,0,0,3.18-2.06,41.78,41.78,0,0,1,4.25-3.05l.72-.72a5.86,5.86,0,0,1,1.66-1.29,9.09,9.09,0,0,0,2.19-1.84l.9-.36a6.57,6.57,0,0,1,3.09-2.95q1.56-.54,1.56-1.08c0-.71-.57-1.07-1.7-1.07a4.83,4.83,0,0,0-2.15.89h-2.06a6.48,6.48,0,0,0-2,1.08Z" transform="translate(-16.91 -1.57)"/><path d="M174.64,313.17l1.88-1.52a2.25,2.25,0,0,0,2.32-2.24c.12-1.37,1.11-2.57,3-3.58l1.07-1.53c.9-.89,3.34-2.06,7.34-3.49a7,7,0,0,0,2.06-1.61.52.52,0,0,1,.36-.18l1.43.36a9.68,9.68,0,0,0,3-.63,10.84,10.84,0,0,1,3.53-.63l3.76-.17a4.56,4.56,0,0,1,1.48.53,6.24,6.24,0,0,0,2.73.54,4.89,4.89,0,0,1,3.62,1.79,5.12,5.12,0,0,1,1.66,3.31q0,2.79-2.86,5.65T206.42,313a10.81,10.81,0,0,1-2.32,1.93,6.28,6.28,0,0,0-1.66,1.25,2.3,2.3,0,0,1-1.38.85.65.65,0,0,1-.54-.22.65.65,0,0,0-.54-.23q-1.42,0-3.12,3.5l-1.61-.18a4.7,4.7,0,0,0-2,2.15,1.81,1.81,0,0,1-1.88,1.16q-3.3,3.32-4.47,3.31a8.14,8.14,0,0,1-1.25-.35A2.93,2.93,0,0,0,185,328c0,.71-.48,1.13-1.43,1.25l-1.17,1.07-.89-.17-1.79,1.88a5.28,5.28,0,0,0-2.77.89q-.18,1.08-.54,2.73c-.23,1.11-.35,1.72-.35,1.84q0,2.6,4.74,2.6l4.3-.63a6,6,0,0,0,3.18-.9,6.11,6.11,0,0,1,3.18-.89,5.71,5.71,0,0,0,1.62-.36l.89.36a5.93,5.93,0,0,1,2.33-2.42,5.55,5.55,0,0,1,2.69-1.07l.89-.54a2.27,2.27,0,0,1,1.08-1.43l.71-.63a2,2,0,0,1,1.35-.72h1.25l.36-.18a4.37,4.37,0,0,1,3-2.73,3.43,3.43,0,0,0,2.42-1.3,2.22,2.22,0,0,1,1.75-1.07,3.26,3.26,0,0,0,2.1-1.21,11,11,0,0,1,2.11-1.93,20.55,20.55,0,0,0,1.74-1.34,1.39,1.39,0,0,1,.85-.45q.54,0,.54.81c0,.54.12.8.36.8a.32.32,0,0,0,.36-.35,3,3,0,0,0-.18-.9v-.63a1.78,1.78,0,0,1,1.43-1.79l4-2.59c.12-1.26.46-2,1-2.2a4.2,4.2,0,0,0,1.3-.71,1.45,1.45,0,0,1,1-.41c.77,0,1.16.45,1.16,1.34l-.45,2.33.45,2.42a2.63,2.63,0,0,1-.85,1.48,6.4,6.4,0,0,0-1.3,2.87c-.3,1.28-.69,2-1.16,2.1h-.54a7.52,7.52,0,0,1-2.56,2,2.92,2.92,0,0,0-1.48,1.12l-3,3.5c-.6.59-1.11,1.13-1.53,1.61s-.75.72-1,.72l-.72-.72q0-.18-.36-.18c-.6,0-1,.36-1.12,1.07a4,4,0,0,1-.94,1.89,9.68,9.68,0,0,0-3.5,2.32l-.53.18h-1.62c-.77,0-1.31.59-1.61,1.75a2.68,2.68,0,0,1-2.56,2,5.56,5.56,0,0,0-3,1.08,2.06,2.06,0,0,1-.81.36,12.28,12.28,0,0,0-2.5,1.43l-7.53,2.69a3.72,3.72,0,0,1-1.17.45l-2.51.35a1.4,1.4,0,0,1-1.07-.71q-.54-.72-.72-.72l-1.61.54a11.9,11.9,0,0,1-3.41.54,3.93,3.93,0,0,1-2-.63,16.78,16.78,0,0,0-1.71-.9q-2.6,0-3.67-4l-1.08.18q-.36,0-2.41-6.36a3.08,3.08,0,0,0-1.71-1,1.58,1.58,0,0,1-1.16-1.74c0-2.69.58-4.49,1.75-5.42s1.8-1.63,1.92-2.11l1.25-4.65a4.65,4.65,0,0,0,.9-1.79L173,316.3C173.27,315.89,173.8,314.84,174.64,313.17Zm18.94-5.37-1.08.53a22.44,22.44,0,0,0-2.1,1.57,21.08,21.08,0,0,1-3.4,2.24c-1.11.57-2.24,2.05-3.41,4.43a20.36,20.36,0,0,0-1.74,4.12.47.47,0,0,0,.53.54l3.05-1.34a15,15,0,0,0,3.18-2.06,41.78,41.78,0,0,1,4.25-3.05l.72-.72a5.86,5.86,0,0,1,1.66-1.29,9.09,9.09,0,0,0,2.19-1.84l.89-.36a6.66,6.66,0,0,1,3.09-2.95c1.05-.36,1.57-.72,1.57-1.08,0-.71-.57-1.07-1.7-1.07a4.79,4.79,0,0,0-2.15.89h-2.06a6.48,6.48,0,0,0-2,1.08Z" transform="translate(-16.91 -1.57)"/><path d="M230.52,328.39v-.62a8.45,8.45,0,0,1,.18-2,7.46,7.46,0,0,1-.54-2.6,25.56,25.56,0,0,1,.89-2.51l.81-2.77a14.52,14.52,0,0,1,.72-1.71,10.47,10.47,0,0,1-.54-1.61,5,5,0,0,1,1.16-3.4,11.09,11.09,0,0,0,2-3.76L237,302l2.95-7.17a10.73,10.73,0,0,1,.85-1.43c.51-.78.93-1.45,1.26-2l1.39-2.46.89-.18a1,1,0,0,0,.36-.72,10.85,10.85,0,0,0-.36-1.43l3.14-5.19,1.88-3.85a4.32,4.32,0,0,1,2-2c1.19-2.21,2.24-3.56,3.13-4a13.44,13.44,0,0,1,2-3.67l1.7-.18a8.07,8.07,0,0,1,.9-1.88l.18-1.79c0,.36.15.26.45-.31s.74-1.63,1.34-3.18l2.42-2.78.71-1.25a28,28,0,0,0,1.44-2.42,4.73,4.73,0,0,0,2.24-2l1.88-1.52c-.12-.66.59-2.12,2.15-4.39a11.54,11.54,0,0,0,2.77-1.61l1.26-.36c0-2.09.74-3.52,2.24-4.3l1.07-.72a9.46,9.46,0,0,1,1.61-.71l.63-.18a7.91,7.91,0,0,1,2.51-.36,8.67,8.67,0,0,1,6,2.46,7.44,7.44,0,0,1,2.68,5.6,3.79,3.79,0,0,1-1.34,2.6l-.36.71q-1.25,4.94-1.79,4.93a1.75,1.75,0,0,0-1,.54,16.84,16.84,0,0,1-.36,3.31c-1.08.18-1.61,1.52-1.61,4a7.49,7.49,0,0,1-1.3,1.84,9.07,9.07,0,0,0-1.75,3.58c-.42,1.52-.86,2.28-1.34,2.28h-1l.27,1.35a3.52,3.52,0,0,1-1.21,2.46,5.12,5.12,0,0,0-1.48,2.55,7,7,0,0,1-2.15,3.23l-.89,1.43a12.66,12.66,0,0,1-1.43,1.88,8,8,0,0,0-1.53,3L270,290.06c-1.62,2.93-2.84,4.33-3.68,4.21a29.73,29.73,0,0,1-1.07,4,2.49,2.49,0,0,1-1.26,1,3.15,3.15,0,0,0-1.52,1.57,5.06,5.06,0,0,1-1.16,1.65l-1.61,3.32a3.76,3.76,0,0,0-2.06,2.33c-1,.23-1.56,1-1.8,2.41a6.17,6.17,0,0,0-.89,1.62l-3.14,3.13a5.35,5.35,0,0,0-2.59,3.89,2.11,2.11,0,0,1-2.33,2.2,12.24,12.24,0,0,1-4.48-1.34h-.18a8.69,8.69,0,0,1-1.25,2.77l.36,2.42q0,.45-1.44,5.64a5,5,0,0,1,.72,1.88l-.18,2,.45,2.42c.3,2,1,3,2.15,3l2.15.36a15.52,15.52,0,0,0,2.23-1.35l3.31-1.79a.16.16,0,0,1,.18.18,4.16,4.16,0,0,0,1.43.36q.9,0,.9-1.44v-1.16a2.14,2.14,0,0,1,1.3-1.07,2.93,2.93,0,0,0,1.39-.81c.41-.42.74-.63,1-.63h.9c.89,0,1.34-1,1.34-3.13a3.85,3.85,0,0,0,.89-.72h1.08c.47,0,1-.58,1.56-1.74a10.22,10.22,0,0,1,1.21-2.11,6.38,6.38,0,0,0,2.24-.54q2.87-5.19,4.39-5.19h.53a4.61,4.61,0,0,0,1.66-2.55,1.72,1.72,0,0,1,.89-1.48,6.14,6.14,0,0,0,1.39-.9c.42-.36.68-.53.81-.53.89,0,1.34.32,1.34,1l-.27,2.51.63,2.69a3.39,3.39,0,0,1-.77,1.38,3.81,3.81,0,0,0-.75,2.29c0,1.73-.31,2.65-.9,2.77a2.27,2.27,0,0,0-1.48,1.21,5.49,5.49,0,0,1-1.92,1.88,5.43,5.43,0,0,0-2.06,2.47l-1.52.35-.9.54c-.71,1.85-1.47,3-2.28,3.41s-1.81,1.67-3,3.76q-.27,0-.27.18l-1.43-.18a3.41,3.41,0,0,1-1.61,1.7,2.63,2.63,0,0,0-1.34,1,4.1,4.1,0,0,1-1.93,1.3,3.11,3.11,0,0,0-1.74,1.25,1.35,1.35,0,0,1-1.08.81,2.41,2.41,0,0,0-1.34.67,1.73,1.73,0,0,1-1.07.58c-.12,0-.54-.06-1.25-.18h-.36a4.76,4.76,0,0,1-2.51,1.08,3.22,3.22,0,0,0-1.7.35,4.48,4.48,0,0,0-1.66-.53,9.13,9.13,0,0,1-2.55-.9,12.13,12.13,0,0,1-1.88.36q-1.52,0-3.84-3a9.57,9.57,0,0,1-2.33-5.87,12.91,12.91,0,0,0-1-1.38,4.45,4.45,0,0,1-1-2.83v-.89l.18-1.08v-1.7l.18-.54c.89-.11,1.34-.23,1.34-.35Zm18.17-23.73,1.88-1.07a8.47,8.47,0,0,1,2.33-3.45c1.31-1.34,2.24-2,2.78-2h.71a3.17,3.17,0,0,1,.27-1.25,4.38,4.38,0,0,0,.27-1.7c0-.36.81-1.34,2.42-3l.71-1.61q.81-2.33,4-3.85c.84-1.73,1.47-2.6,1.89-2.6l.71-.18a5.37,5.37,0,0,1,1.43-2.41l.36-.54v-1.43a6.66,6.66,0,0,1,1.21-1.48,10.07,10.07,0,0,0,1.75-2.42,4.25,4.25,0,0,1,1.48-1.75,3.4,3.4,0,0,0,1.29-2.24l1.44-.18a4.07,4.07,0,0,1,.18-1.52l.18-.89c.29-.72,1.34-2.6,3.13-5.65l1.43-3.31a2.12,2.12,0,0,1,.76-1.3,3,3,0,0,0,.77-2.19l.71-3c0-1.37-.24-2.06-.71-2.06a7.06,7.06,0,0,1-1.66.9c-.51.18-1,1.25-1.48,3.22q-2.68.63-3.09,2.55a5.41,5.41,0,0,1-2.19,3.27l-.63,1.08a3.69,3.69,0,0,1-1.7,2.06,10,10,0,0,0-2.87,3.67q-4.47,6.18-4.92,6.63l-.9,1.07-1.34-.18a14.91,14.91,0,0,1,.36,1.62,1.42,1.42,0,0,1-.54,1,3,3,0,0,0-.81,1.2,5.83,5.83,0,0,1-1.07,1.66,9,9,0,0,0-1.48,3.05,5.4,5.4,0,0,1-1.21,2.46l-1.25-.18c-.78.48-1.17,1-1.17,1.43l.27,1.26a1.33,1.33,0,0,1-.49.85,5,5,0,0,0-.94,1.92,22.47,22.47,0,0,1-2.24,4.35,27.84,27.84,0,0,0-2.82,6.18q-1,3.27-2,4.16a.73.73,0,0,0,.54.18C247.23,307.08,248,306.27,248.69,304.66Z" transform="translate(-16.91 -1.57)"/><path d="M270,318.63l1.44-1.25H272c.41,0,1-.45,1.88-1.34l.89-.36q1.8-2.69,3.14-3.14l1.44-1.07a3,3,0,0,1,1-.63,8.53,8.53,0,0,0,2.15-1.74,4,4,0,0,1,2.38-1.48,4.66,4.66,0,0,1,1.43.18,5.85,5.85,0,0,1,2.15-2.11,8.77,8.77,0,0,0,2.6-2.46l1.17-.54a9.74,9.74,0,0,0,2.55-1.83,3.94,3.94,0,0,1,2.92-1.12q2.6,0,5.42,2.64t2.82,5.06l-1.52,7q-1.53,7.71-3.4,8.06l-.36,1.88q-1.26.9-1.26,1.44l.54,2.15c0,.3-.33.75-1,1.34-.13,0-.18.18-.18.54v3.67c0,.66-.42,1.2-1.26,1.61a2.09,2.09,0,0,0,.54.36,3.64,3.64,0,0,1,2.42-.54l1.43.18,2-2a8.26,8.26,0,0,0,1.74-.85,29,29,0,0,1,3.8-1.75l11.72-9q2.42-2.41,3.67-2.42c.89,0,1.34.57,1.34,1.7a6.46,6.46,0,0,1-.76,3.27,17.41,17.41,0,0,0-1.39,3.13,5.75,5.75,0,0,1-1.48,2.56,7,7,0,0,0-1.39,1.56,11.27,11.27,0,0,1-2.91,2.47,27.43,27.43,0,0,0-4,3.27,19.52,19.52,0,0,1-2.73,2.37l-3.85,2.78-.53.89a8.57,8.57,0,0,1-1.66.76,10.87,10.87,0,0,0-2.64,1.48l-1.62.9a3.61,3.61,0,0,1-1.74.44,3.2,3.2,0,0,0-2.11,1c-.59.63-1.07.94-1.43.94l-1.34-.17-1.79.53a6.36,6.36,0,0,1-3.72-1.83,5.15,5.15,0,0,1-2.19-3.9v-.54l.18-1.25a8.22,8.22,0,0,0-.54-1.84,11.31,11.31,0,0,1-.54-1.65l.18-1.26-.18-.53a7.71,7.71,0,0,1,.36-3,5.17,5.17,0,0,0,.54-1.75q.18-1.11.36-1.83l.44-2.24a2.67,2.67,0,0,1,.9-1.43c.12-.48.36-1.29.72-2.42l.35-1.61.9-1.26a3.11,3.11,0,0,0,.85-1.92,6.38,6.38,0,0,1,.94-2.56,5.79,5.79,0,0,0,.81-1.61,1,1,0,0,0-1.08-1.07,8,8,0,0,0-2.24,1.43l-1.61-.54q-.18,0-1,.9c0,.24-.27.42-.8.54a2.66,2.66,0,0,0-1.53,1.34l-.71.18-1.17-.54h-.35c-.6,0-1,.66-1.08,2a4.54,4.54,0,0,1-2.6,1.88l-2,.54a2.45,2.45,0,0,0-1.43,1.61,5.14,5.14,0,0,1-1.79,2.29,4.56,4.56,0,0,1-1.79,1c-1.68,0-2.51-.93-2.51-2.78l.71-4.21Zm38.69-44.78-.53-3.49v-.54q0-4.2,2.86-4.65a34.12,34.12,0,0,0,3.76-1.17q1.62.36,3.36,2.82a7.85,7.85,0,0,1,1.75,4.35,2.81,2.81,0,0,1-.27.8,8,8,0,0,0-.36,2.38,4.06,4.06,0,0,1-1.75,3,5.59,5.59,0,0,1-3.53,1.3c-.84,0-1.9-.58-3.18-1.75A5.68,5.68,0,0,1,308.67,273.85Z" transform="translate(-16.91 -1.57)"/><path d="M404.38,332.07h.35l.9.35a.5.5,0,0,0,.36-.17,3.15,3.15,0,0,1,1.44-2.6,4.08,4.08,0,0,1,2-2.6c1.05-.59,2.7-1.58,5-2.95l2.24-2,1.08-.54.72-.9a2.67,2.67,0,0,1,1.88-1.16c.9,0,1.35.33,1.35,1l-.81,1.79.36,3a4.19,4.19,0,0,1-1.12,2.87c-.75.83-1.9,2.06-3.45,3.67l-4.58,4.83-2.42,1.26a8,8,0,0,0-1.61,1.25l-3.5,3a2.23,2.23,0,0,1-.81,1.88h-1.43l-.72.36c-.42,1.13-1.64,2.24-3.67,3.31l-1.26.9a1.9,1.9,0,0,1-1.17.53l-2.51-.36-1.7.36a4.13,4.13,0,0,1-1.93-.71,12.25,12.25,0,0,0-2.46-1.12q-1.26-.4-3.19-3.32a15.47,15.47,0,0,1-2.11-3.8,3.38,3.38,0,0,0-.4-1.21,4,4,0,0,1-.4-1,10.08,10.08,0,0,1,.8-1.79v-.18a4.14,4.14,0,0,0-.49-1.26,5.31,5.31,0,0,1-.49-2.41,5.46,5.46,0,0,0-.54-2.06q.72-.72.72-1.08a3.05,3.05,0,0,0-.27-1,3.05,3.05,0,0,1-.27-1l.54-4.39-.36-2.24.18-2.15c0-1.25-.54-1.88-1.61-1.88a3,3,0,0,0-1.78,1l-.63.18a21,21,0,0,0-3.39,1.92,3.28,3.28,0,0,1-2.05.76,5,5,0,0,1-2.06,1l-.71.54a10.62,10.62,0,0,1-1.43,1.07c0,.18-1.12,1.18-3.34,3s-4.24,3.54-6,5.15-3.08,2.5-3.88,2.64-1.21.91-1.21,2.29c0,.24-.53.71-1.6,1.43a11.36,11.36,0,0,0-1.88,2,7.42,7.42,0,0,0-1.6-1.07c-.78,0-1.35,1-1.71,2.95-.36.78-1.32,1.26-2.87,1.43a3.79,3.79,0,0,0-.63,1.35l-.36.36H341a4.65,4.65,0,0,0-1.25,1,5.41,5.41,0,0,1-1.89,1.29c-.78,1.62-1.44,2.42-2,2.42a2.51,2.51,0,0,1-1-.36,8.67,8.67,0,0,0-1.66-.62c-.65-.18-1.39-.91-2.19-2.2a6.46,6.46,0,0,1-1.21-3.27c0-6.62,1.28-10.24,3.85-10.83l.18-.36v-.72a1.69,1.69,0,0,1,1-1.65,6,6,0,0,0,2.1-2,7,7,0,0,1,1.44-1.66h1.16c.24,0,.36-.63.36-1.88a1.38,1.38,0,0,1,.45-1,2,2,0,0,0,.53-1.3,8.17,8.17,0,0,1,1.3-2.77,8.55,8.55,0,0,0,1.21-2.29l-.18-.35c-1.49,1.37-2.56,2.12-3.22,2.23s-1.55,1-2.69,2.6l-1.43-.27a34.83,34.83,0,0,1-4.67,3.14,5.11,5.11,0,0,0-2,2.06.71.71,0,0,1-.63.71,10.11,10.11,0,0,0-2.33,1.44h-.54c-1.5,0-2.25-1.08-2.25-3.23l1.88-5.1a7.57,7.57,0,0,1,3.8-4.08,46.8,46.8,0,0,0,5.06-3.17,7.43,7.43,0,0,1,4.11-1.62l.63-.89a6.88,6.88,0,0,0,4.12-3.67c.71-1.67,1.7-2.51,2.95-2.51a8.67,8.67,0,0,1,7.52,3.63c1.73,2.41,2.59,4.34,2.59,5.77l.18,2.42a15.91,15.91,0,0,1-.54,3.49,5.24,5.24,0,0,0-1.07,2.42c0,.48.3.72.89.72a2.6,2.6,0,0,0,1.44-.77,12.05,12.05,0,0,1,2-1.38,3,3,0,0,0,1.3-1.08,5.09,5.09,0,0,1,3.13-3,8.9,8.9,0,0,0,2.77-1.35l.9-.71.71-1.35a9.82,9.82,0,0,0,3.22-2,3.87,3.87,0,0,1,2.15-1.16,7.59,7.59,0,0,0,3-1.61l1.35-.36,1.25-.72a3.09,3.09,0,0,1,1.08-.44c.59-.18,1.47-.5,2.63-1a8.69,8.69,0,0,1,2.38-.67,8.4,8.4,0,0,1,7.2,3.68q2.64,3.66,2.64,5.9l-.18,1.62.36,2.41v.36l-.72,4.93.18,1.7q0,4.21-1.79,5.82-.45.18-.45.9v.8l1.79,3.77c.54,1.31,1,2,1.26,2l2.87-.81a3.5,3.5,0,0,0,2.07-1.88,13.35,13.35,0,0,0,2.51-2.15C403,332.55,403.6,332.07,404.38,332.07Z" transform="translate(-16.91 -1.57)"/><path d="M416.55,403.89l-1.44,1a3.56,3.56,0,0,1-1.88.54q-2.24,0-4.34-3a10.39,10.39,0,0,1-2.1-6.09q0-5.64,1.12-8a15,15,0,0,0,1.29-3.53c0-.06.65-1.54,1.93-4.44a33.54,33.54,0,0,1,3.63-6.58,42.62,42.62,0,0,0,2.86-4.21l.36-.71a9.36,9.36,0,0,1,2.6-3q0-.54,3.45-3.72a76.91,76.91,0,0,1,6.49-5.42l.89-1.25a10.46,10.46,0,0,1,2.51-1.34l5.2-1.44a40,40,0,0,1,3.49-2.77h.72l2.41-.72a28.34,28.34,0,0,1,6.12-1.65q4.15-.76,4.72-1.8a21.44,21.44,0,0,0,1-1.92c.26-.6.91-1.85,2-3.76.24-1,.44-1.82.62-2.42a1.94,1.94,0,0,1,.59-1.08,5.14,5.14,0,0,0,1-1.74,18,18,0,0,1,1.43-2.64.16.16,0,0,0,.18-.18l-.54-1.53a5.23,5.23,0,0,1,1.48-2.64c.51-.32.76-.55.76-.67l-.63-1.61L466,322.3a.32.32,0,0,0-.36-.35q-4.75,3.32-5.56,3.31a20.83,20.83,0,0,1-2,2.15,3.23,3.23,0,0,0-2.06,1.88l-.71.18-.54.89c0,.13-.21.27-.63.45a24.44,24.44,0,0,0-2.5,1.44l-1.07-.18c-.24,0-.54.59-.9,1.79a6.46,6.46,0,0,1-2.91,2.19A3.18,3.18,0,0,0,445,337l-.72.9-.89-.18c-1.25,0-1.88.48-1.88,1.43a2.94,2.94,0,0,1-1.07,1.88,4.21,4.21,0,0,0-1.79.54h-1.34A4.18,4.18,0,0,1,434.1,344l-2.59,1.79-1.52.54a15.38,15.38,0,0,0-2.15,1.3,7.62,7.62,0,0,1-3.67.94,16.29,16.29,0,0,0-3.84-1.39q-2.59-.68-3.68-8.73h-.17a3,3,0,0,0-1.57.53,2.86,2.86,0,0,1-1.21.54c-1.43,0-2.15-.59-2.15-1.79q0-4,3.05-5.29l2.23-2.77,5.74-5.64c4-4,6.7-6.57,8.07-7.71s2.88-2.24,4.49-3.31l4.58-3a15.91,15.91,0,0,1,2.87-1.66,3,3,0,0,0,1.12-.58,15,15,0,0,1,3.28-1.35l1.62-.71a27.64,27.64,0,0,1,6.46-1.7l1.26.17a3,3,0,0,0,1.88-.71c.84,0,2.13-.66,3.86-2l3.23-.9a7.4,7.4,0,0,1,2.25-.45h1.7c1.26,0,2.07,1,2.46,3s.73,3,1,3q.18,0,1.08-1.35l1.25-.89a5.08,5.08,0,0,1,1.7-.9,2.48,2.48,0,0,1,2.69,1.79v.18l.36.45a43.37,43.37,0,0,1,.81,5.28,10.91,10.91,0,0,1-1.84,6.72,16.43,16.43,0,0,0-2.19,3.4A58,58,0,0,1,473,331.62c-.3.66-1,2.39-2.15,5.19l-.89.9a.58.58,0,0,0-.36.54l.18,1.25a8,8,0,0,0-1.52,3.85,9.26,9.26,0,0,1-1.44,3.31,10.36,10.36,0,0,0,1.57.95,11.81,11.81,0,0,1,3.14,2.86q1.74,2.1,1.74,3.18c0,.18-.33,1.34-1,3.49-2.15,1.62-4,2.42-5.47,2.42a5.4,5.4,0,0,1-2.6-1.16l-.54.18v-.36a6.75,6.75,0,0,1-1.84-.67,2.56,2.56,0,0,0-1.31-.41.63.63,0,0,0-.71.72,1.6,1.6,0,0,0,.18.72c-.36.29-.84.74-1.44,1.34a15.24,15.24,0,0,1-1.26,2.64,10.88,10.88,0,0,1-2.24,3.18c-1.31.06-2.21,1.05-2.69,3s-1,3.13-1.7,3.67l-.9-.36q-3,6.09-6.09,8.78c-1.25.3-1.89.52-1.92.67s-.09.54-.18,1.16-.81,1.62-2.15,3-2.14,2-2.37,2l-.9.18-.54.54q.09,1.79-4.74,5.73c-1.74,1-2.66,1.61-2.78,2q-.72,1.71-5.28,4l-1.7,1.52a7.53,7.53,0,0,1-2.33,1.53Zm32.32-46-2.69.36a3,3,0,0,0-1.52-.72q-.36,0-.54.54c-.71.95-2.3,1.76-4.74,2.42a14.84,14.84,0,0,0-5,2,4.6,4.6,0,0,1-2.2,1.12c-.6.06-.89.18-.89.36A10.26,10.26,0,0,0,430,365.2a6.77,6.77,0,0,0-1.79,1.12,4,4,0,0,1-1.88.94c-1.07,2.33-1.85,3.5-2.33,3.5a5.19,5.19,0,0,1-.89-.18h-.18a7.48,7.48,0,0,1-1.79,2.68,3.3,3.3,0,0,0-1.08,1,5.76,5.76,0,0,1-1.75,1.48,4.16,4.16,0,0,0-1.74,2.73,5.58,5.58,0,0,1-1.12,2.6,5.09,5.09,0,0,0-.85,3l-.54,1.25a17.47,17.47,0,0,0-.76,3.09c-.33,1.71-.49,2.59-.49,2.65a3,3,0,0,0,1.07,2.24,2.43,2.43,0,0,1,1.52-.63l5.29-2.15c.18-.12.83-.67,2-1.66a9.71,9.71,0,0,1,3-1.92,5.79,5.79,0,0,0,2.37-1.62,6.78,6.78,0,0,1,1.75-1.79,2.69,2.69,0,0,0,1.21-1.79q2.06-1.78,3.76-3.36a9.9,9.9,0,0,0,2.19-2.59,4.36,4.36,0,0,1,1.57-1.75l.36-1.16a4,4,0,0,1,.76-.23c.39-.09,1-1.06,1.93-2.91l2.41-4a16.15,16.15,0,0,0,3.5-5.46l1.25-1.08c.24-.12.36-.39.36-.8Zm-1.6-28.57,1.07-1.52a3.31,3.31,0,0,1,1.84-1.08,3.59,3.59,0,0,0,2.1-1.52,13.54,13.54,0,0,1,5.11-4.48l.9-.62c.89-1.74,1.7-2.68,2.41-2.83a2.93,2.93,0,0,0,1.88-1.61,4.83,4.83,0,0,0,.81-2.28q0-.36-.54-.36a3.51,3.51,0,0,0-2.19.72,2.91,2.91,0,0,1-1.3.71l-1.79-.18q-1.62.9-4.48,2.15l-1.61,1.35a5.69,5.69,0,0,1-1.93.89,1.86,1.86,0,0,0-1.3,1.12c-.29.63-.68.94-1.16.94l-.72.36c-.23.24-.92.36-2.06.36a9.19,9.19,0,0,0-1.83,1.52c-.63.66-1,1-1.12,1a10.12,10.12,0,0,1-3.54,2.77,3.12,3.12,0,0,0-1.92,1.53,5.18,5.18,0,0,0-2.87,2,8.41,8.41,0,0,1-2.11,2.15,6.6,6.6,0,0,0-1.65,1.48l-.9.71a6.8,6.8,0,0,0-1.48,2.38,8.35,8.35,0,0,0-.94,2.82q0,.54.63.54a9.51,9.51,0,0,0,3.36-1.3,15.32,15.32,0,0,0,3.18-2c.48-.48.81-.71,1-.71l3.41.17a2.73,2.73,0,0,1,1.83-1.52,3.29,3.29,0,0,0,2-1.52q.72-1.16,4-2.51l1-1.61Z" transform="translate(-16.91 -1.57)"/></g><g id="Dice"><path d="M255.15,29.34a13.24,13.24,0,0,0-15.09,11,13.21,13.21,0,0,0,13.05,15.23,13.2,13.2,0,0,0,2-26.23Zm2.1,13.7a4.2,4.2,0,0,1-4.8,3.48,4.18,4.18,0,0,1-3.5-4.78,4.23,4.23,0,0,1,4.16-3.56,4.6,4.6,0,0,1,.64,0A4.23,4.23,0,0,1,257.25,43Z" transform="translate(-16.91 -1.57)"/><path d="M269.73,74.52a13.2,13.2,0,0,0,13,15.25,13.2,13.2,0,0,0,10.68-21,13.11,13.11,0,0,0-8.64-5.26h0A13.2,13.2,0,0,0,269.73,74.52Zm16.43-.42a4.15,4.15,0,0,1,.76,3.12,4.21,4.21,0,0,1-4.81,3.49,4.18,4.18,0,0,1-3.49-4.78,4.21,4.21,0,0,1,4.15-3.55,3.63,3.63,0,0,1,.65.05A4.16,4.16,0,0,1,286.16,74.1Z" transform="translate(-16.91 -1.57)"/><path d="M300.88,122.15a13.2,13.2,0,1,0-2.37-9.82A13.11,13.11,0,0,0,300.88,122.15Zm6.52-8.43a4.2,4.2,0,0,1,4.14-3.54,4.62,4.62,0,0,1,.65,0h0a4.21,4.21,0,0,1,3.5,4.79,4.2,4.2,0,0,1-8.3-1.3Z" transform="translate(-16.91 -1.57)"/><path d="M354.74,25.61a22.94,22.94,0,0,0-15.07-9.22l-25.31-4A4.5,4.5,0,0,0,313,21.32l25.31,4A14.13,14.13,0,0,1,350,41.37l-14.56,92.91a14.13,14.13,0,0,1-13.93,11.91,13.31,13.31,0,0,1-2.17-.17l-50.56-7.91V106.58a23.12,23.12,0,0,0-23.1-23.09H219.63l9.56-61A14.13,14.13,0,0,1,245.3,10.74l32.31,5.08A4.5,4.5,0,1,0,279,6.93L246.7,1.85a23.14,23.14,0,0,0-26.4,19.23L210.52,83.5H151.59a23.11,23.11,0,0,0-23.1,23.08v94a23.12,23.12,0,0,0,23.1,23.09H245.7a23.12,23.12,0,0,0,23.1-23.09V147.22l49.17,7.7a22.76,22.76,0,0,0,3.56.28,23.15,23.15,0,0,0,22.82-19.53l14.56-92.9A22.93,22.93,0,0,0,354.74,25.61Zm-94.94,175a14.11,14.11,0,0,1-14.1,14.09H151.59a14.11,14.11,0,0,1-14.1-14.09v-94a14.11,14.11,0,0,1,14.1-14.08H245.7a14.1,14.1,0,0,1,14.1,14.08v94Z" transform="translate(-16.91 -1.57)"/><path d="M164.2,109.35a13.2,13.2,0,1,0,13.21,13.2A13.21,13.21,0,0,0,164.2,109.35Zm0,17.39a4.2,4.2,0,1,1,4.21-4.19A4.2,4.2,0,0,1,164.2,126.74Z" transform="translate(-16.91 -1.57)"/><path d="M198.8,138.54A13.2,13.2,0,1,0,212,151.73,13.21,13.21,0,0,0,198.8,138.54Zm0,17.4a4.2,4.2,0,1,1,4.2-4.2A4.21,4.21,0,0,1,198.8,155.94Z" transform="translate(-16.91 -1.57)"/><path d="M233.08,109.49a13.2,13.2,0,1,0,13.22,13.2A13.22,13.22,0,0,0,233.08,109.49Zm0,17.39a4.19,4.19,0,1,1,4.21-4.19A4.2,4.2,0,0,1,233.08,126.88Z" transform="translate(-16.91 -1.57)"/><path d="M164.2,171.31a13.19,13.19,0,1,0,13.21,13.19A13.2,13.2,0,0,0,164.2,171.31Zm0,17.38a4.19,4.19,0,1,1,4.21-4.19A4.2,4.2,0,0,1,164.2,188.69Z" transform="translate(-16.91 -1.57)"/><path d="M233.08,171.45a13.19,13.19,0,1,0,13.22,13.19A13.22,13.22,0,0,0,233.08,171.45Zm0,17.38a4.19,4.19,0,1,1,4.21-4.19A4.2,4.2,0,0,1,233.08,188.83Z" transform="translate(-16.91 -1.57)"/><path d="M295.37,18.57h.07a3.81,3.81,0,0,0,.75.07,4.5,4.5,0,0,0,.73-8.94l-.07,0a4.5,4.5,0,0,0-1.48,8.88Z" transform="translate(-16.91 -1.57)"/></g></svg>