<svg id="search" xmlns="http://www.w3.org/2000/svg" viewBox="0 0 466.46 457.82"><g id="maginifier"><path d="M335.51,402.42A103.07,103.07,0,0,0,189.75,256.66c-34.09,34.1-39.26,84.8-15.51,124.39a4.34,4.34,0,0,1-.59,5.17L121.06,438.8c-10.46,10.47-13,25.1-3.67,34.39l1.59,1.59c9.29,9.29,23.92,6.8,34.39-3.67l52.47-52.47a4.4,4.4,0,0,1,5.28-.71C250.71,441.68,301.41,436.52,335.51,402.42Zm-126.73-19a76.16,76.16,0,1,1,107.7,0A76.23,76.23,0,0,1,208.78,383.39Z" transform="translate(-15.85 -22.71)"/><path d="M215.35,323.43a10.51,10.51,0,0,1-4.14-.85,10.64,10.64,0,0,1-5.65-13.94,67,67,0,0,1,87.77-35.57A10.64,10.64,0,0,1,285,292.66a45.73,45.73,0,0,0-59.88,24.27A10.65,10.65,0,0,1,215.35,323.43Z" transform="translate(-15.85 -22.71)"/></g><g id="SEARCH-2" data-name="SEARCH"><path d="M77.64,186a25.2,25.2,0,0,1-8.86,19.42q-8.85,8-22,8t-22.1-8A25.23,25.23,0,0,1,15.85,186v-30.3H37.37v42.11q0,10.75,9.44,10.76t9.31-10.76V165.17a42.81,42.81,0,0,0-6.42-23.48L22.81,99.84a43.88,43.88,0,0,1-7-24.13V50.13q0-11.41,8.86-19.42t22.1-8q13.11,0,22,8a25.22,25.22,0,0,1,8.86,19.42v30.3H56.12V38.32q0-10.76-9.31-10.76T37.37,38.32V69.8a42.56,42.56,0,0,0,6.42,23.35L70.69,135a44.17,44.17,0,0,1,7,24.26Zm-10.76,4.33v-28.2a43,43,0,0,0-6.69-23.87L33.3,96.56a43,43,0,0,1-6.69-23.87V45q0-7.74,3.54-12.86-8.92,6-8.92,16.14V74a43.71,43.71,0,0,0,6.69,24l26.89,41.58a43,43,0,0,1,6.69,23.87v30.7q0,8.13-4.19,13.12Q66.88,201.11,66.88,190.35ZM30.15,204.13q-3.54-5.12-3.54-13V160.58H21.23V188Q21.23,198,30.15,204.13ZM66.88,75.71V45.8q0-10.75-9.57-16.92,4.19,5,4.19,13.24V75.71Z" transform="translate(-15.85 -22.71)"/><path d="M156,212.13H88.79v-4.85h6.69V28.88H88.79V24H156V80.43H134.44V28.88H117v81.46h25.45v4.85H117v92.09h17.45V155.72H156Z" transform="translate(-15.85 -22.71)"/><path d="M235.18,212.13H200.29v-4.85H207l-4.86-54.57H182.84l-5.38,54.57h6.69v4.85H164v-4.85h6.69L189.53,24H211l17.45,183.26h6.69ZM201.86,148,192.94,46.32,183.1,148Z" transform="translate(-15.85 -22.71)"/><path d="M317,212.13h-9.31q-18.89,0-18.89-19.68V126a10.75,10.75,0,0,0-10.75-10.76h-9.32v92.09h6.69v4.85H240.56v-4.85h6.69V28.88h-6.69V24h37.52q13.38,0,22.82,8.07t9.44,19.35V87.77q0,17.58-18.75,24.93,18.75,7.86,18.75,25v62.31q0,7.22,6.17,7.22H317ZM288.83,99.58V39.63a10.74,10.74,0,0,0-10.75-10.75h-9.32v81.46h9.32a10.75,10.75,0,0,0,10.75-10.76Z" transform="translate(-15.85 -22.71)"/><path d="M392.33,186q0,11.29-9.44,19.35t-22.83,8.07a34,34,0,0,1-22.76-8.07q-9.51-8.07-9.51-19.35V50.13q0-11.28,9.51-19.35a34,34,0,0,1,22.76-8.07q13.38,0,22.83,8.07t9.44,19.35v30.3H370.82V38.32a10.76,10.76,0,1,0-21.52,0V197.83a10.76,10.76,0,1,0,21.52,0V155.72h21.51Z" transform="translate(-15.85 -22.71)"/><path d="M482.32,212.13h-35v-4.85h6.82V115.19H432.6v92.09h6.69v4.85H404.4v-4.85h6.69V28.88H404.4V24h34.89v4.86H432.6v81.46h21.51V28.88h-6.82V24h35v4.86H475.5v178.4h6.82Z" transform="translate(-15.85 -22.71)"/></g></svg>