<svg id="toppicks" xmlns="http://www.w3.org/2000/svg" viewBox="0 0 472.25 399.22"><g id="picks"><path d="M56.36,307l-.62,10.39a33.21,33.21,0,0,1,10.54-9.41,26.12,26.12,0,0,1,12.59-3.11,23.57,23.57,0,0,1,14.4,4.48q6.08,4.47,7.58,10.32t1.51,19.86V389q0,16-1.91,22.82a19,19,0,0,1-7.8,10.82,24.64,24.64,0,0,1-14.22,4,25.22,25.22,0,0,1-12.32-3.11,33.52,33.52,0,0,1-10.37-9.23v27H19.93V307Zm10.19,34.21q0-10.91-.8-13.21t-4.43-2.3q-3.54,0-4.56,2.66t-1,12.85v48.75q0,10.63,1.06,13.29t4.61,2.66c2.3,0,3.74-.81,4.3-2.44s.84-5.57.84-11.83Z" transform="translate(-16.64 -42.09)"/><path d="M169.17,281.07v18.7H132.3v-18.7Zm0,25.88V424.56H132.3V307Z" transform="translate(-16.64 -42.09)"/><path d="M279.32,351.35H245.55V337.79c0-4.72-.39-7.93-1.15-9.61a4.26,4.26,0,0,0-4.26-2.53q-3.1,0-4.16,2.22t-1.07,9.92v55.48q0,6.3,1.6,9.44a5.05,5.05,0,0,0,4.7,3.15,4.82,4.82,0,0,0,4.91-3.28q1.29-3.29,1.29-12.41v-14h31.91a185.09,185.09,0,0,1-1,21.14,33.86,33.86,0,0,1-5.94,14.44,31.71,31.71,0,0,1-13.07,11.17q-8.07,3.76-20,3.77-15.15,0-24-5.19A28.58,28.58,0,0,1,202.78,407q-3.67-9.36-3.67-26.55V347q0-15,3-22.6T215,310.8q9.84-6,23.93-6t23.93,5.94q9.93,5.94,13.21,15T279.32,351.35Z" transform="translate(-16.64 -42.09)"/><path d="M385.21,307l-14.53,46.84,18.87,70.77H355.12L344,373.3l0,51.26H308.1V281.07h35.81l0,60.24L355.12,307Z" transform="translate(-16.64 -42.09)"/><path d="M486.14,344.53H454.41v-6.38q0-8.16-.93-10.33t-4.65-2.17a5.29,5.29,0,0,0-4.52,2c-1,1.33-1.51,3.33-1.51,6a29.87,29.87,0,0,0,.76,7.93q.75,2.52,4.52,5.54t15.46,8.77q15.6,7.62,20.48,14.36t4.87,19.59q0,14.35-3.72,21.67t-12.45,11.25q-8.73,3.94-21.05,3.95-13.65,0-23.36-4.26T415,410.91q-3.63-7.26-3.63-22v-5.67h31.73v7.44q0,9.49,1.2,12.32t4.74,2.84q3.81,0,5.32-1.91t1.5-8q0-8.42-1.95-10.54T433.05,372.8q-15.76-8.87-19.23-16.09a39.42,39.42,0,0,1-3.45-17.15q0-14.08,3.72-20.78t12.63-10.32a54.33,54.33,0,0,1,20.69-3.64q11.7,0,19.9,3t12.59,7.84q4.38,4.88,5.31,9a65.67,65.67,0,0,1,.93,13Z" transform="translate(-16.64 -42.09)"/></g><g id="top"><path d="M301.53,204.72A25.38,25.38,0,0,1,290,207.36q-19.83,0-19.83-22.87V132.75h-14.4v-9h14.4V103.17l10.23-3.36v24h21.11v9H280.42v50.14q0,8.33,2.72,12t9.19,3.68a16.54,16.54,0,0,0,9.2-2.88Z" transform="translate(-16.64 -42.09)"/><path d="M351.91,207.6a41.85,41.85,0,0,1-16.36-3A35,35,0,0,1,323.2,196a38,38,0,0,1-7.84-13.31,51.74,51.74,0,0,1-2.72-17.19,54.29,54.29,0,0,1,2.88-18.31,38.49,38.49,0,0,1,8.2-13.72,35,35,0,0,1,12.83-8.59,45.57,45.57,0,0,1,16.8-3,41.76,41.76,0,0,1,16,2.92,32.75,32.75,0,0,1,12.07,8.43,37.56,37.56,0,0,1,7.6,13.44,56.74,56.74,0,0,1,2.64,18,52.52,52.52,0,0,1-2.76,17.47A39.44,39.44,0,0,1,381,195.68a34.83,34.83,0,0,1-12.47,8.8A42.25,42.25,0,0,1,351.91,207.6Zm.8-76.84a30.83,30.83,0,0,0-12.16,2.31,25.51,25.51,0,0,0-9.31,6.76,30.45,30.45,0,0,0-6,10.88,47.24,47.24,0,0,0-2.08,14.59,42.93,42.93,0,0,0,2.08,13.83,31,31,0,0,0,5.88,10.56,25.36,25.36,0,0,0,9.23,6.75,33,33,0,0,0,24.31.08,24.13,24.13,0,0,0,9-6.63,29.29,29.29,0,0,0,5.55-10.68,50.24,50.24,0,0,0,1.88-14.39q0-16.56-7.35-25.31T352.71,130.76Z" transform="translate(-16.64 -42.09)"/><path d="M422.51,192.49v50.85H412.28V123.8h10.23v15.67h.32A32.57,32.57,0,0,1,435,126.4a35.52,35.52,0,0,1,31.26-1.68,29.16,29.16,0,0,1,10.48,8,36.5,36.5,0,0,1,6.55,12.64,56.94,56.94,0,0,1,2.28,16.71A62.89,62.89,0,0,1,483,180.61,42.68,42.68,0,0,1,475.69,195a33.4,33.4,0,0,1-11.64,9.32,34.84,34.84,0,0,1-15.39,3.32q-17.27,0-25.83-15.11Zm0-20.87a29.25,29.25,0,0,0,1.88,10.51,27.22,27.22,0,0,0,5.24,8.64,24.33,24.33,0,0,0,8.11,5.87,25.19,25.19,0,0,0,10.52,2.16,23.46,23.46,0,0,0,11.11-2.6,24.18,24.18,0,0,0,8.44-7.39,36,36,0,0,0,5.36-11.6A57.06,57.06,0,0,0,475.05,162a44.71,44.71,0,0,0-1.76-13,29.54,29.54,0,0,0-5-9.88,21.63,21.63,0,0,0-7.84-6.24,24,24,0,0,0-10.27-2.15,27.27,27.27,0,0,0-11.52,2.35,26.06,26.06,0,0,0-8.71,6.44,28.57,28.57,0,0,0-5.52,9.56,34.9,34.9,0,0,0-1.92,11.63Z" transform="translate(-16.64 -42.09)"/></g><g id="like_icon" data-name="like icon"><path d="M197.9,42.09H61.21a44.25,44.25,0,0,0-26.5,8.73,3.39,3.39,0,0,0,4,5.45,37.46,37.46,0,0,1,22.46-7.4H197.9a37.84,37.84,0,0,1,37.79,37.8v89.64a37.83,37.83,0,0,1-37.79,37.8H140.13a5.07,5.07,0,0,0-3.7,1.6L90,265a2.38,2.38,0,0,1-4.12-1.63V219.19a5.09,5.09,0,0,0-5.08-5.08H61.21a37.83,37.83,0,0,1-37.79-37.79V86.67A37.58,37.58,0,0,1,30,65.32a3.39,3.39,0,0,0-5.59-3.83,44.38,44.38,0,0,0-7.79,25.18v89.64a44.63,44.63,0,0,0,44.58,44.58H79.13v42.52A9.16,9.16,0,0,0,95,269.69l45.89-48.8h57a44.62,44.62,0,0,0,44.57-44.57V86.67A44.62,44.62,0,0,0,197.9,42.09Z" transform="translate(-16.64 -42.09)"/><path d="M178.23,96.54a30.19,30.19,0,0,0-42.66,0l-5.91,5.9a.2.2,0,0,1-.3,0l-5.82-5.81a30.16,30.16,0,0,0-42.65,42.66L124.57,183a7,7,0,0,0,9.89,0l24-24a3.39,3.39,0,0,0-4.79-4.79l-24,24a.27.27,0,0,1-.16.06.21.21,0,0,1-.15-.06L85.68,134.5a23.39,23.39,0,0,1,33.07-33.08l5.81,5.81a7,7,0,0,0,9.9,0l5.9-5.9a23.39,23.39,0,0,1,33.08,33.07l-10.12,10.12a3.39,3.39,0,1,0,4.79,4.79l10.12-10.12A30.19,30.19,0,0,0,178.23,96.54Z" transform="translate(-16.64 -42.09)"/></g></svg>